<mxfile host="app.diagrams.net" agent="Mozilla/5.0 (Windows NT 10.0; Win64; x64) AppleWebKit/537.36 (KHTML, like Gecko) Chrome/131.0.0.0 Safari/537.36 Edg/131.0.0.0" version="26.0.3">
  <diagram name="Page-1" id="KbHQ-6BuIwicfjIUdRHw">
    <mxGraphModel dx="1409" dy="1116" grid="1" gridSize="10" guides="1" tooltips="1" connect="1" arrows="1" fold="1" page="1" pageScale="1" pageWidth="850" pageHeight="1100" math="0" shadow="0">
      <root>
        <mxCell id="0" />
        <mxCell id="1" parent="0" />
        <mxCell id="cLQ7v91tSiP5gRgEfkxV-1" value="Fixed Priority Scheduler" style="text;html=1;align=center;verticalAlign=middle;resizable=0;points=[];autosize=1;strokeColor=none;fillColor=none;fontStyle=1" vertex="1" parent="1">
          <mxGeometry x="40" y="40" width="150" height="30" as="geometry" />
        </mxCell>
        <mxCell id="cLQ7v91tSiP5gRgEfkxV-4" value="Pointer - Array" style="swimlane;childLayout=stackLayout;resizeParent=1;resizeParentMax=0;startSize=20;horizontal=0;horizontalStack=1;" vertex="1" parent="1">
          <mxGeometry x="40" y="80" width="420" height="120" as="geometry" />
        </mxCell>
        <mxCell id="cLQ7v91tSiP5gRgEfkxV-5" value="0" style="swimlane;startSize=20;" vertex="1" parent="cLQ7v91tSiP5gRgEfkxV-4">
          <mxGeometry x="20" width="80" height="120" as="geometry" />
        </mxCell>
        <mxCell id="cLQ7v91tSiP5gRgEfkxV-6" value="1" style="swimlane;startSize=20;" vertex="1" parent="cLQ7v91tSiP5gRgEfkxV-4">
          <mxGeometry x="100" width="80" height="120" as="geometry" />
        </mxCell>
        <mxCell id="cLQ7v91tSiP5gRgEfkxV-7" value="2" style="swimlane;startSize=20;" vertex="1" parent="cLQ7v91tSiP5gRgEfkxV-4">
          <mxGeometry x="180" width="80" height="120" as="geometry" />
        </mxCell>
        <mxCell id="cLQ7v91tSiP5gRgEfkxV-8" value="..." style="swimlane;startSize=20;" vertex="1" parent="cLQ7v91tSiP5gRgEfkxV-4">
          <mxGeometry x="260" width="80" height="120" as="geometry" />
        </mxCell>
        <mxCell id="cLQ7v91tSiP5gRgEfkxV-9" value="n" style="swimlane;startSize=20;" vertex="1" parent="cLQ7v91tSiP5gRgEfkxV-4">
          <mxGeometry x="340" width="80" height="120" as="geometry" />
        </mxCell>
        <mxCell id="cLQ7v91tSiP5gRgEfkxV-16" value="Round Robin" style="ellipse;whiteSpace=wrap;html=1;aspect=fixed;" vertex="1" parent="1">
          <mxGeometry x="110" y="270" width="230" height="230" as="geometry" />
        </mxCell>
        <mxCell id="cLQ7v91tSiP5gRgEfkxV-17" value="" style="shape=flexArrow;endArrow=classic;html=1;rounded=0;" edge="1" parent="1" target="cLQ7v91tSiP5gRgEfkxV-16">
          <mxGeometry width="50" height="50" relative="1" as="geometry">
            <mxPoint x="100" y="140" as="sourcePoint" />
            <mxPoint x="180" y="250" as="targetPoint" />
          </mxGeometry>
        </mxCell>
        <mxCell id="cLQ7v91tSiP5gRgEfkxV-18" value="0" style="text;html=1;align=center;verticalAlign=middle;resizable=0;points=[];autosize=1;strokeColor=none;fillColor=none;" vertex="1" parent="1">
          <mxGeometry x="405" y="128" width="30" height="30" as="geometry" />
        </mxCell>
        <mxCell id="cLQ7v91tSiP5gRgEfkxV-19" value="Task A" style="ellipse;shape=cloud;whiteSpace=wrap;html=1;" vertex="1" parent="1">
          <mxGeometry x="40" y="330" width="120" height="60" as="geometry" />
        </mxCell>
        <mxCell id="cLQ7v91tSiP5gRgEfkxV-20" value="Task B" style="ellipse;shape=cloud;whiteSpace=wrap;html=1;" vertex="1" parent="1">
          <mxGeometry x="165" y="460" width="120" height="80" as="geometry" />
        </mxCell>
        <mxCell id="cLQ7v91tSiP5gRgEfkxV-21" value="Task C" style="ellipse;shape=cloud;whiteSpace=wrap;html=1;" vertex="1" parent="1">
          <mxGeometry x="270" y="320" width="120" height="80" as="geometry" />
        </mxCell>
        <mxCell id="cLQ7v91tSiP5gRgEfkxV-28" value="" style="curved=1;endArrow=classic;html=1;rounded=0;" edge="1" parent="1">
          <mxGeometry width="50" height="50" relative="1" as="geometry">
            <mxPoint x="270" y="360" as="sourcePoint" />
            <mxPoint x="270" y="370" as="targetPoint" />
            <Array as="points">
              <mxPoint x="240" y="320" />
              <mxPoint x="180" y="340" />
              <mxPoint x="170" y="390" />
              <mxPoint x="190" y="440" />
              <mxPoint x="280" y="440" />
            </Array>
          </mxGeometry>
        </mxCell>
        <mxCell id="cLQ7v91tSiP5gRgEfkxV-31" value="While ( Pointer - Array (i) != 0)" style="text;html=1;align=center;verticalAlign=middle;resizable=0;points=[];autosize=1;strokeColor=none;fillColor=none;" vertex="1" parent="1">
          <mxGeometry x="430" y="270" width="180" height="30" as="geometry" />
        </mxCell>
      </root>
    </mxGraphModel>
  </diagram>
</mxfile>
